HIERARCHY
ROOT Hips
{
	OFFSET -3.958830 18.904000 13.208200
	CHANNELS 6 Xposition Yposition Zposition Zrotation Yrotation Xrotation 
	JOINT LHipJoint
	{
		OFFSET 0.000000 0.000000 0.000000
		CHANNELS 3 Zrotation Yrotation Xrotation
		JOINT LeftUpLeg
		{
			OFFSET 1.800000 -1.400000 0.085000
			CHANNELS 3 Zrotation Yrotation Xrotation
			JOINT LeftLeg
			{
				OFFSET 2.215000 -6.000000 0.000000
				CHANNELS 3 Zrotation Yrotation Xrotation
				JOINT LeftFoot
				{
					OFFSET 2.500000 -6.900000 0.000000
					CHANNELS 3 Zrotation Yrotation Xrotation
					JOINT LeftToeBase
					{
						OFFSET 0.200000 -0.500000 1.950000
						CHANNELS 3 Zrotation Yrotation Xrotation
						End Site
						{
							OFFSET 0.000000 0.000000 0.000000
						}
					}
				}
			}
		}
	}
	JOINT RHipJoint
	{
		OFFSET 0.000000 0.000000 0.000000
		CHANNELS 3 Zrotation Yrotation Xrotation
		JOINT RightUpLeg
		{
			OFFSET -1.800000 -1.400000 0.085000
			CHANNELS 3 Zrotation Yrotation Xrotation
			JOINT RightLeg
			{
				OFFSET -2.215000 -6.000000 0.000000
				CHANNELS 3 Zrotation Yrotation Xrotation
				JOINT RightFoot
				{
					OFFSET -2.500000 -6.900000 0.000000
					CHANNELS 3 Zrotation Yrotation Xrotation
					JOINT RightToeBase
					{
						OFFSET -0.200000 -0.500000 1.950000
						CHANNELS 3 Zrotation Yrotation Xrotation
						End Site
						{
							OFFSET 0.000000 0.000000 0.000000
						}
					}
				}
			}
		}
	}
	JOINT LowerBack
	{
		OFFSET 0.000000 0.000000 0.000000
		CHANNELS 3 Zrotation Yrotation Xrotation
		JOINT Spine
		{
			OFFSET -0.087000 1.940000 -0.288900
			CHANNELS 3 Zrotation Yrotation Xrotation
			JOINT Spine1
			{
				OFFSET 0.000000 1.950000 0.060000
				CHANNELS 3 Zrotation Yrotation Xrotation
				JOINT Neck
				{
					OFFSET 0.000000 0.000000 0.000000
					CHANNELS 3 Zrotation Yrotation Xrotation
					JOINT Neck1
					{
						OFFSET 0.000000 1.600000 0.340000
						CHANNELS 3 Zrotation Yrotation Xrotation
						JOINT Head
						{
							OFFSET 0.000000 1.667000 -0.240000
							CHANNELS 3 Zrotation Yrotation Xrotation
							End Site
							{
								OFFSET 0.000000 0.000000 0.000000
							}
						}
					}
				}
				JOINT LeftShoulder
				{
					OFFSET 0.000000 0.000000 0.000000
					CHANNELS 3 Zrotation Yrotation Xrotation
					JOINT LeftArm
					{
						OFFSET 2.700000 1.550000 -0.730000
						CHANNELS 3 Zrotation Yrotation Xrotation
						JOINT LeftForeArm
						{
							OFFSET 5.450000 0.000000 0.000000
							CHANNELS 3 Zrotation Yrotation Xrotation
							JOINT LeftHand
							{
								OFFSET 3.450000 0.000000 0.000000
								CHANNELS 3 Zrotation Yrotation Xrotation
								JOINT LeftHandIndex1
								{
									OFFSET 0.750000 0.000000 0.000000
									CHANNELS 3 Zrotation Yrotation Xrotation
									End Site
									{
										OFFSET 0.000000 0.000000 0.000000
									}
								}
							}
						}
					}
				}
				JOINT RightShoulder
				{
					OFFSET 0.000000 0.000000 0.000000
					CHANNELS 3 Zrotation Yrotation Xrotation
					JOINT RightArm
					{
						OFFSET -2.700000 1.550000 -0.730000
						CHANNELS 3 Zrotation Yrotation Xrotation
						JOINT RightForeArm
						{
							OFFSET -5.450000 0.000000 0.000000
							CHANNELS 3 Zrotation Yrotation Xrotation
							JOINT RightHand
							{
								OFFSET -3.450000 0.000000 0.000000
								CHANNELS 3 Zrotation Yrotation Xrotation
								JOINT RightHandIndex1
								{
									OFFSET -0.750000 0.000000 0.000000
									CHANNELS 3 Zrotation Yrotation Xrotation
									End Site
									{
										OFFSET 0.000000 0.000000 0.000000
									}
								}
							}
						}
					}
				}
			}
		}
	}
}
MOTION
Frames: 6
Frame Time: 0.016667
-0.187780 13.513100 0.473790 -65.238852 -0.794821 6.757677 -15.491278 13.565425 4.267615 -3.137010 -4.790892 -34.206840 -6.010852 6.231226 22.010025 -0.016737 3.126512 3.197407 0.044150 -0.080310 0.357700 17.905511 -10.116470 3.081651 9.715942 1.582930 -15.097354 -9.359690 -1.713569 17.973809 -0.253353 -2.131409 3.681029 -0.390750 -0.336010 -0.014940 -2.580151 -3.890123 -8.323384 3.979108 1.224246 47.487834 -6.904431 7.440546 7.852523 8.639914 0.351184 -19.495827 -5.173288 5.758698 51.768258 -6.801680 10.753500 -12.540500 -5.875996 -22.642690 12.670453 -19.947584 -6.953496 -0.605010 12.933020 -4.301523 -0.564859 -3.266307 2.784704 0.640760 -0.381190 0.436180 -0.099710 -10.565594 27.912741 9.974400 -4.648741 -13.836169 -18.524834 -77.829175 61.918426 -42.072060 2.254716 -0.476898 0.027010 0.016880 -0.074680 -0.139720 
-0.229920 13.475760 0.608190 -63.932118 -3.973470 1.663319 -15.727462 14.187552 3.635302 -1.491078 -2.399084 -26.939628 -7.844095 7.171698 20.761864 0.007423 3.559181 3.056731 0.072370 -0.045300 0.374950 17.714721 -9.620829 3.336762 13.461675 2.914928 -14.290896 -18.645819 0.963482 22.770089 -0.472291 -2.987536 3.342783 -0.345560 -0.299930 0.045020 -1.886120 -5.233757 -8.154161 -1.812258 5.306638 48.526703 -2.468333 9.409016 10.955852 8.248717 1.269254 -17.606683 -2.456494 4.837409 48.967347 -4.807740 9.976270 -16.272550 -5.196611 -21.899292 12.419751 -23.068639 -7.680944 -0.658317 13.400957 -4.076116 -0.761342 -3.337935 2.833541 0.631930 -0.335390 0.424690 -0.113330 -10.879378 26.810464 9.210760 -9.032854 -19.857395 -17.523457 -69.057155 58.538836 -33.169625 2.443847 -0.951396 0.027670 0.010850 -0.055240 -0.149640 
-0.276540 13.389730 0.695340 -63.932511 -5.301329 -0.212543 -15.816075 14.160073 3.253577 -0.461101 -1.247474 -24.690831 -7.330712 6.693425 17.655033 -0.106311 3.317035 3.161248 0.105790 0.019790 0.360630 17.724142 -9.070492 3.872623 17.754858 5.958661 -17.270403 -23.671308 3.452221 28.891146 -0.678784 -3.943169 2.986735 -0.259490 -0.227940 0.060410 -1.744743 -5.613964 -8.233448 -2.638490 5.641097 46.990455 -1.342803 9.017517 12.786601 7.938196 1.338166 -16.041659 -1.540436 5.062111 46.205257 -2.507710 9.698260 -17.296340 -4.448070 -19.709055 11.246416 -26.101196 -8.728458 -0.444919 13.768071 -3.517320 -0.853779 -3.446508 2.842527 0.591640 -0.270820 0.382150 -0.098500 -11.426258 23.841682 8.715827 -10.462688 -20.874139 -15.753324 -65.532386 53.184278 -28.265918 2.427725 -1.142881 0.003240 0.047040 -0.042890 -0.141270 
-0.310460 13.295910 0.767950 -64.497161 -4.398781 -2.501645 -15.812288 14.028666 3.077698 0.438526 -1.093874 -23.421489 -8.045557 7.250601 19.212060 -0.047134 3.677211 3.033910 0.113990 0.035620 0.326710 17.796273 -8.654015 4.343400 20.539204 8.400729 -19.990241 -28.937069 6.058874 34.582979 -0.957408 -5.187619 2.550276 -0.233450 -0.204390 0.059540 -1.867821 -5.782209 -8.422158 -1.140503 3.273074 48.016357 -1.990053 6.775738 12.078377 8.299401 -0.290997 -15.545914 -4.404773 6.449664 44.034469 -1.017300 9.405570 -16.044740 -4.520252 -18.514088 11.146293 -28.239879 -7.295931 -0.356216 12.199929 -3.455662 -0.666117 -3.442033 2.884548 0.558620 -0.258420 0.349370 -0.088770 -11.882617 22.874554 7.985221 -13.101375 -22.956378 -14.169390 -65.627159 51.870461 -26.952622 2.433846 -1.209726 0.006170 0.031840 -0.040680 -0.122630 
-0.362960 13.213270 0.869430 -63.890400 -2.592671 -4.951368 -15.877537 14.224161 2.997806 -1.470491 -1.234303 -21.985663 -5.485370 7.250208 22.809442 0.026076 3.945136 2.987029 0.077680 0.027940 0.266490 17.752209 -8.496339 4.380221 21.432034 8.082037 -20.896552 -31.038574 6.400351 34.269541 -0.978945 -5.402584 2.508230 -0.227750 -0.111830 0.031570 -1.740143 -6.344369 -8.387413 -2.615645 1.450257 47.903691 -1.470096 3.930996 12.970035 8.721089 -1.447088 -15.449749 -5.966419 7.731606 41.238714 -0.438750 9.731310 -14.121230 -3.379234 -17.292184 11.363271 -31.947661 -4.218532 -1.493123 12.075130 -5.039773 -0.789610 -3.449808 2.881602 0.493460 -0.209420 0.298590 -0.056820 -13.716081 21.611281 7.844312 -13.367995 -22.519395 -13.533866 -60.131514 50.932610 -23.454581 2.401734 -1.289553 -0.014050 0.091650 -0.027020 -0.078590 
-0.414890 13.141070 0.948060 -63.064407 -1.906397 -6.444858 -15.916637 14.386917 3.126229 -3.826670 -1.506543 -20.895199 -4.113378 6.996812 24.111839 0.036882 4.031076 2.975935 0.026920 -0.021630 0.186690 17.685036 -8.577743 4.168850 19.464882 7.355674 -22.619709 -24.053181 3.669065 32.239175 -0.626517 -4.305836 2.887642 -0.229730 -0.040520 0.013760 -1.603424 -6.608089 -8.334262 -3.874052 1.013291 46.613619 -0.719718 2.934625 12.033935 8.858692 -1.338151 -15.603972 -5.680804 8.430241 41.489413 1.788850 9.411420 -9.113830 -4.711947 -17.725188 11.966287 -32.805800 -1.622047 -2.100724 12.030621 -5.199896 -0.782953 -3.479848 2.896302 0.458250 -0.154530 0.233580 -0.047340 -12.498955 21.783310 7.507171 -17.840561 -24.724905 -10.787578 -55.396876 51.572745 -20.380427 2.393596 -1.319897 -0.049040 0.095400 0.007430 -0.067210 
